<svg xmlns="http://www.w3.org/2000/svg" xmlns:xlink="http://www.w3.org/1999/xlink" width="2000" zoomAndPan="magnify" viewBox="0 0 1500 1499.999933" height="2000" preserveAspectRatio="xMidYMid meet" version="1.0"><defs><g/><clipPath id="430b9d16a8"><rect x="0" width="316" y="0" height="518"/></clipPath><clipPath id="b92ce5c9d3"><rect x="0" width="157" y="0" height="60"/></clipPath></defs><rect x="-150" width="1800" fill="#ffffff" y="-149.999993" height="1799.99992" fill-opacity="1"/><rect x="-150" width="1800" fill="#1e1e1e" y="-149.999993" height="1799.99992" fill-opacity="1"/><g transform="matrix(1, 0, 0, 1, 582, 490)"><g clip-path="url(#430b9d16a8)"><g fill="#efeeeb" fill-opacity="1"><g transform="translate(1.737726, 406.040036)"><g><path d="M 312.59375 0 L 287.265625 0 L 263.390625 -176.5625 L 261.9375 -185.96875 L 257.59375 -176.921875 L 170.046875 0 L 163.53125 0 L 74.890625 -177.28125 L 70.1875 -187.046875 L 68.734375 -176.1875 L 45.21875 0 L 19.90625 0 L 56.796875 -259.765625 L 61.140625 -259.765625 L 162.8125 -55 L 166.78125 -46.671875 L 171.125 -55.359375 L 271.34375 -259.765625 L 275.6875 -259.765625 Z M 312.59375 0 "/></g></g></g></g></g><g transform="matrix(1, 0, 0, 1, 673, 627)"><g clip-path="url(#b92ce5c9d3)"><g fill="#ff3131" fill-opacity="1"><g transform="translate(1.661956, 45.535195)"><g><path d="M 3.59375 -29.71875 L 18.5 -29.71875 L 18.5 -26.828125 L 6.578125 -26.828125 L 6.578125 -17.515625 L 18.5 -17.515625 L 18.5 -14.609375 L 6.578125 -14.609375 L 6.578125 0 L 3.59375 0 Z M 3.59375 -29.71875 "/></g></g></g><g fill="#ff3131" fill-opacity="1"><g transform="translate(21.733285, 45.535195)"><g><path d="M 12.09375 -29.71875 C 15.476562 -29.71875 18.015625 -29.015625 19.703125 -27.609375 C 21.390625 -26.203125 22.234375 -24.269531 22.234375 -21.8125 C 22.234375 -20.039062 21.800781 -18.5625 20.9375 -17.375 C 20.082031 -16.195312 18.882812 -15.3125 17.34375 -14.71875 C 15.800781 -14.125 13.992188 -13.828125 11.921875 -13.828125 L 22.640625 0 L 18.953125 0 L 8.4375 -13.828125 L 6.578125 -13.828125 L 6.578125 0 L 3.59375 0 L 3.59375 -29.71875 Z M 11.921875 -16.71875 C 14.210938 -16.71875 15.984375 -17.128906 17.234375 -17.953125 C 18.492188 -18.785156 19.125 -20.070312 19.125 -21.8125 C 19.125 -23.332031 18.582031 -24.546875 17.5 -25.453125 C 16.425781 -26.367188 14.816406 -26.828125 12.671875 -26.828125 L 6.578125 -26.828125 L 6.578125 -16.71875 Z M 11.921875 -16.71875 "/></g></g></g><g fill="#ff3131" fill-opacity="1"><g transform="translate(46.232745, 45.535195)"><g><path d="M 25.453125 0 L 20.90625 -9.765625 L 7.859375 -9.765625 L 3.3125 0 L 0.203125 0 L 14.078125 -29.71875 L 14.78125 -29.71875 L 28.5625 0 Z M 9.1875 -12.578125 L 19.578125 -12.578125 L 14.40625 -23.71875 Z M 9.1875 -12.578125 "/></g></g></g><g fill="#ff3131" fill-opacity="1"><g transform="translate(74.994762, 45.535195)"><g><path d="M 35.765625 0 L 32.859375 0 L 30.125 -20.203125 L 29.96875 -21.28125 L 29.46875 -20.234375 L 19.453125 0 L 18.703125 0 L 8.5625 -20.28125 L 8.03125 -21.40625 L 7.859375 -20.15625 L 5.171875 0 L 2.28125 0 L 6.5 -29.71875 L 7 -29.71875 L 18.625 -6.296875 L 19.078125 -5.34375 L 19.578125 -6.328125 L 31.046875 -29.71875 L 31.546875 -29.71875 Z M 35.765625 0 "/></g></g></g><g fill="#ff3131" fill-opacity="1"><g transform="translate(113.026842, 45.535195)"><g><path d="M 3.59375 -29.71875 L 20.578125 -29.71875 L 20.578125 -26.859375 L 6.578125 -26.859375 L 6.578125 -17.46875 L 20.578125 -17.46875 L 20.578125 -14.65625 L 6.578125 -14.65625 L 6.578125 -2.890625 L 20.578125 -2.890625 L 20.578125 0 L 3.59375 0 Z M 3.59375 -29.71875 "/></g></g></g><g fill="#ff3131" fill-opacity="1"><g transform="translate(135.167388, 45.535195)"><g><path d="M 10.015625 0.75 C 8.023438 0.75 6.3125 0.222656 4.875 -0.828125 C 3.445312 -1.878906 2.164062 -3.453125 1.03125 -5.546875 L 3.5625 -7.078125 C 4.445312 -5.453125 5.410156 -4.222656 6.453125 -3.390625 C 7.503906 -2.566406 8.609375 -2.15625 9.765625 -2.15625 C 10.785156 -2.15625 11.71875 -2.378906 12.5625 -2.828125 C 13.40625 -3.285156 14.066406 -3.898438 14.546875 -4.671875 C 15.023438 -5.453125 15.265625 -6.296875 15.265625 -7.203125 C 15.265625 -8.109375 15.007812 -8.953125 14.5 -9.734375 C 13.988281 -10.523438 13.25 -11.34375 12.28125 -12.1875 C 11.320312 -13.03125 9.644531 -14.414062 7.25 -16.34375 C 6.164062 -17.195312 5.328125 -17.957031 4.734375 -18.625 C 4.140625 -19.289062 3.691406 -20 3.390625 -20.75 C 3.085938 -21.507812 2.9375 -22.429688 2.9375 -23.515625 C 2.9375 -24.835938 3.253906 -26.03125 3.890625 -27.09375 C 4.523438 -28.15625 5.394531 -28.984375 6.5 -29.578125 C 7.601562 -30.171875 8.816406 -30.46875 10.140625 -30.46875 C 11.796875 -30.46875 13.222656 -30.046875 14.421875 -29.203125 C 15.617188 -28.359375 16.785156 -27.164062 17.921875 -25.625 L 15.515625 -23.765625 C 14.878906 -24.585938 14.3125 -25.242188 13.8125 -25.734375 C 13.320312 -26.234375 12.765625 -26.632812 12.140625 -26.9375 C 11.523438 -27.25 10.832031 -27.40625 10.0625 -27.40625 C 9.226562 -27.40625 8.507812 -27.226562 7.90625 -26.875 C 7.300781 -26.53125 6.835938 -26.066406 6.515625 -25.484375 C 6.203125 -24.910156 6.046875 -24.296875 6.046875 -23.640625 C 6.046875 -22.703125 6.320312 -21.820312 6.875 -21 C 7.425781 -20.1875 8.222656 -19.394531 9.265625 -18.625 C 11.472656 -17.019531 13.175781 -15.691406 14.375 -14.640625 C 15.582031 -13.597656 16.550781 -12.46875 17.28125 -11.25 C 18.007812 -10.039062 18.375 -8.707031 18.375 -7.25 C 18.375 -5.863281 18.007812 -4.554688 17.28125 -3.328125 C 16.550781 -2.097656 15.550781 -1.109375 14.28125 -0.359375 C 13.007812 0.378906 11.585938 0.75 10.015625 0.75 Z M 10.015625 0.75 "/></g></g></g></g></g></svg>